<svg width="64" height="64" viewBox="0 0 64 64" fill="none" xmlns="http://www.w3.org/2000/svg">
<path d="M10 8C6.70312 8 4 10.7031 4 14V50C4 53.2969 6.70312 56 10 56H54C57.2969 56 60 53.2969 60 50V14C60 10.7031 57.2969 8 54 8H10ZM10 12H54C55.125 12 56 12.875 56 14V43.0625L41.9844 28.2656L34.1719 37.0625L22.125 24.3594L8 40.2656V14C8 12.875 8.875 12 10 12ZM44 16C41.7969 16 40 17.7969 40 20C40 22.2031 41.7969 24 44 24C46.2031 24 48 22.2031 48 20C48 17.7969 46.2031 16 44 16ZM22.2188 30.2656L42.8281 52H10C8.875 52 8 51.125 8 50V46.2969L22.2188 30.2656ZM42.0625 34.1875L56 48.875V50C56 51.125 55.125 52 54 52H48.3281L36.9375 39.9688L42.0625 34.1875Z" fill="#B9B9B9"/>
</svg>
